<svg width="327" height="422" viewBox="0 0 327 422" fill="none" xmlns="http://www.w3.org/2000/svg">
<g clip-path="url(#clip0_102_2)">
<path d="M227.416 55.5179C231.537 61.9277 232.609 66.7063 237.689 101.345C240.411 119.918 242.507 133.842 242.382 134.588C242.212 135.294 241.353 136.632 240.403 137.5C237.986 139.708 236.169 139.805 233.768 137.661C232.851 136.842 231.932 135.631 231.711 134.966C231.446 134.34 230.92 120.731 228.243 102.511C225.476 83.5062 222.773 67.9131 222.022 65.8386C219.286 58.7943 210.958 50.8852 203.174 48.6117C199.607 47.5321 193.616 47.4062 156.85 47.5567C120.78 47.782 114.053 48.0127 110.717 49.0103C101.705 51.8018 92.7028 61.2135 90.764 70.3995C89.3729 76.9553 68.4891 234.389 68.3064 239.84C67.827 253.293 73.8454 265.649 81.7781 270.785C85.527 273.275 93.3149 277.152 98.8328 277.947C103.308 278.59 199.065 278.41 211.085 277.76C220.545 277.241 229.22 273.572 234.365 270.291C242.233 265.231 246.256 253.374 246.123 248.879C246.851 244.675 245.848 240.678 244.942 235.258C243.817 228.529 242.352 220.724 242.521 219.939C240.997 212.576 244.632 206.91 251.178 212.253C252.138 213.111 252.143 215.079 252.232 215.549C253.21 219.152 257.022 234.493 257.182 239.237C257.712 254.528 253.575 266.117 244.555 274.36C234.801 283.272 225.441 285.83 201.438 286.15L184.505 286.385L184.726 293.842C184.89 313.017 184.698 322.471 184.323 324.943C183.408 331.301 182.831 333.483 177.131 338.297C173.116 341.729 172.251 342.204 167.875 343.599C161.853 345.473 155.342 345.428 149.383 343.538C145.642 342.302 144.422 341.603 140.626 338.446C134.866 333.77 134.325 331.612 133.199 325.069C132.836 322.561 132.507 313.11 132.517 294.013L132.514 286.672L115.362 286.633C105.769 286.565 97.9094 286.175 94.3456 285.487C70.27 281.141 57.8812 264.617 58.9744 238.378C59.1262 234.926 64.215 195.255 70.225 150.246C81.749 64.1514 81.9162 63.131 86.6885 55.8518C89.6125 51.4448 96.9962 45.2502 101.758 43.1865C109.334 39.9711 111.33 39.8039 156.777 39.6087C202.224 39.335 204.221 39.4816 211.838 42.6186C216.408 44.5165 224.786 51.4533 227.416 55.5179V55.5179ZM140.326 295.748C140.495 322.491 140.823 324.923 141.529 326.723C142.894 329.892 150.087 336.709 153.654 337.946C156.656 338.989 161.517 338.886 164.591 337.733C167.32 336.738 174.903 329.412 176.059 326.857C176.658 325.442 176.885 321.478 176.724 295.99L176.533 286.376L158.379 286.451L140.138 286.526L140.326 295.748Z" fill="white"/>
<path d="M221.538 167.098L209.963 178.681C205.699 182.949 201.41 187.217 197.17 191.533C196.17 192.557 195.415 193.923 195.123 195.264C193.587 202.312 192.101 209.36 190.614 216.407L189.786 220.309C189.396 222.211 189.908 224.113 191.199 225.406C192.198 226.406 193.587 226.966 195.049 226.966C195.464 226.966 195.878 226.918 196.292 226.845L200.581 225.942C207.404 224.503 214.252 223.04 221.075 221.626C222.659 221.284 223.999 220.577 225.145 219.431C244.298 200.239 263.452 181.071 282.606 161.928C300.964 141.704 273.492 117.665 254.558 134.005C243.592 145.028 232.553 156.075 221.538 167.098V167.098ZM278.439 157.636C259.261 176.779 240.107 195.971 220.953 215.139C220.636 215.456 220.344 215.602 219.905 215.7C213.058 217.139 206.235 218.578 199.387 220.016L195.78 220.772L196.463 217.578C197.949 210.554 199.436 203.507 200.947 196.483C200.995 196.264 201.19 195.923 201.41 195.679C205.65 191.387 209.89 187.119 214.155 182.876L225.73 171.292C236.769 160.245 247.892 149.282 258.822 138.127C275.63 125.655 290.096 146.622 278.439 157.636Z" fill="white"/>
<path d="M198.131 195.928C198.745 196.029 199.372 196.048 199.973 196.233C205.358 197.892 210.386 201.336 214.521 206.038C215.39 207.026 216.146 208.17 216.958 209.236C218.546 211.774 220.246 214.418 221.01 217.622C221.094 217.977 221.137 218.349 221.2 218.713L223.925 216.962C223.84 216.594 223.776 216.216 223.67 215.857C222.734 212.673 220.91 210.1 219.222 207.589C218.376 206.532 217.582 205.402 216.685 204.419C212.532 199.864 207.595 196.415 202.412 194.21C201.878 193.983 201.315 193.882 200.766 193.718L198.131 195.928V195.928Z" fill="white"/>
</g>
<defs>
<clipPath id="clip0_102_2">
<rect width="327" height="422" fill="white"/>
</clipPath>
</defs>
</svg>
