<?xml version="1.0" encoding="UTF-8"?>
<svg width="536.62pt" height="692.01pt" version="1.0" viewBox="0 0 536.62 692.01" xmlns="http://www.w3.org/2000/svg">
<g transform="matrix(.071638 -.063935 -.070825 -.064669 257.85 643.67)">
<path d="m3480 5105c-129-35-202-84-700-470-267-207-467.81-361.54-475.81-372.54-7-11-14-38-14-60 0-56 19.822-78.063 74.822-78.063 21 0 47 5 58 11 11 5 189.63 173.48 451.63 376.48 273 212 502 381 537 399 121 59 317.74 65.045 436.74 5.0452 55-27 126-94 550-517 415-416 490-496 516-547 69-139 53.968-362.79-40.032-502.79-67-100-1821-2358-1888-2430-165-178-391.37-267.52-548.37-242.52-75 11-214.37 50.477-288.37 103.48-60 43-1167 1142-1298 1288-103 115-156.98 261.4-174.98 362.4-27 155 58.016 380.4 233.02 547.4 34 33 224 185 420 337s328.2 229.61 336.2 241.61c111 76.974 140.72 191.25-2.8387 197.71-22 0-47.008-25.198-54.008-30.198-57-35-741-575-803-634-200-190-299-386-299-595 0-226 76-366 350-645l193.18-196.94-97.097-93.103c-245-244-362.63-367.43-389.63-403.43-70-92-90.984-126.6-85.984-253.6 3-90 7-106 40-174 46-93 122-167 215-211 59-27 82-32 166-35 126-6 159.63 15.477 255.63 86.477 36 28 159.63 145.43 401.63 390.43l93.097 94.103 199.18-195.94c112-109 208-194 258-226 334-220 687-150 1007 199 42 46 486 613 987 1259 958 1236 969 1251 1006 1399 22 90 15 254-14 335-47 128-68 153-592 676-523 524-548 545-676 592-77 28-262 35-344 13zm-2036.7-4078c-341-341-375.63-368.43-406.63-383.43-56-25-225.74-30.045-282.74-5.0453-48 21-103 78-124 128-19 44-13.968 224.79 5.0321 270.79 11 25 58.629 78.431 383.63 403.43l124.1 121.1 419.71-418.75z" fill="#fff"/>
<path d="m1961 3996c-31-17-50-53-51-94 0-49 54-102 105-102 49 0 105 53 105 99 0 86-85 138-159 97z" fill="#fff"/>
<g transform="matrix(.67565 -.66799 -.73997 -.74847 0 0)" stroke-width="7.8359" aria-label="+">
<path d="m161.1-3996.6h515.16q48.252 0 79.474 29.446 32.641 29.445 32.641 72.275 0 42.83-31.222 69.598-31.222 26.769-80.894 26.769h-515.16v501.91q0 48.184-28.384 77.629t-76.636 29.446q-42.576 0-75.217-32.122-31.222-32.122-31.222-74.952v-501.91h-512.33q-49.671 0-82.313-26.769-31.222-26.768-31.222-69.598 0-40.153 34.06-70.937t79.474-30.784h512.33v-500.57q0-48.184 29.803-77.629 29.803-29.446 76.636-29.446 48.252 0 76.636 29.446t28.384 77.629z" fill="#fff" stroke-width="6.0484"/>
</g>
<text transform="matrix(.67565 -.66799 -.73997 -.74847 0 0)" x="3339.261" y="-4551.1191" fill="#000000" font-family="sans-serif" font-size="313.44px" stroke-width="7.8359" style="line-height:1.25" xml:space="preserve"><tspan stroke-width="7.8359"/></text>
</g>
</svg>
